<?xml version="1.0" standalone="no"?>
<!DOCTYPE svg PUBLIC "-//W3C//DTD SVG 20010904//EN"
 "http://www.w3.org/TR/2001/REC-SVG-20010904/DTD/svg10.dtd">
<svg version="1.0" xmlns="http://www.w3.org/2000/svg"
 width="102.000000pt" height="102.000000pt" viewBox="0 0 102.000000 102.000000"
 preserveAspectRatio="xMidYMid meet">
<metadata>
Created by potrace 1.14, written by Peter Selinger 2001-2017
</metadata>
<g transform="translate(0.000000,102.000000) scale(0.100000,-0.100000)"
fill="#000000" stroke="none">
<path d="M708 1013 c7 -3 16 -2 19 1 4 3 -2 6 -13 5 -11 0 -14 -3 -6 -6z"/>
<path d="M740 1005 c0 -8 7 -15 15 -15 8 0 28 -14 44 -31 18 -19 35 -28 42
-23 8 4 9 3 5 -5 -8 -12 28 -64 38 -54 3 3 14 -1 24 -10 10 -10 21 -15 23 -13
2 3 4 -11 3 -29 -1 -21 3 -33 10 -32 6 1 12 -11 12 -28 1 -16 6 -43 13 -58 6
-16 11 -34 11 -41 0 -7 9 -21 20 -31 20 -18 20 -17 20 63 0 48 -4 82 -10 82
-5 0 -10 5 -10 11 0 5 5 7 11 4 18 -12 9 128 -10 141 -13 10 -13 14 2 37 26
40 38 36 -135 42 -108 4 -128 2 -128 -10z m169 -44 c-1 -13 -2 -13 -6 2 -5 20
-14 22 -32 5 -11 -11 -11 -9 -2 10 10 19 15 21 27 11 8 -6 13 -19 13 -28z m71
13 c0 -8 -5 -12 -10 -9 -6 4 -8 11 -5 16 9 14 15 11 15 -7z m-105 -34 c3 -5 1
-10 -4 -10 -6 0 -11 5 -11 10 0 6 2 10 4 10 3 0 8 -4 11 -10z"/>
<path d="M495 954 c-82 -43 -114 -84 -162 -214 -21 -56 -24 -59 -19 -25 3 22
18 66 34 97 18 37 23 53 12 43 -27 -24 -32 -17 -14 18 15 29 15 31 1 19 -9 -8
-31 -42 -48 -75 -31 -61 -31 -62 -26 -22 l6 40 -21 -40 c-12 -22 -27 -60 -34
-85 l-13 -45 2 56 c1 35 6 55 12 51 6 -2 5 1 -2 8 -14 15 -8 34 23 77 32 42
31 52 -1 15 -44 -52 -65 -111 -65 -185 0 -58 -2 -66 -14 -55 -10 11 -11 28 -5
74 10 75 23 109 56 152 l25 34 -50 -34 c-28 -18 -48 -36 -46 -40 2 -4 0 -9 -6
-13 -5 -3 -10 3 -10 15 0 12 -4 18 -10 15 -6 -4 -8 -14 -6 -23 3 -10 1 -24 -5
-32 -8 -12 -9 -9 -4 9 5 16 4 21 -4 17 -6 -4 -11 -2 -11 3 0 6 -4 11 -9 11 -6
0 -6 -11 0 -29 8 -22 7 -36 -3 -53 -13 -23 -13 -23 -16 9 -2 24 -8 32 -20 30
-42 -7 -42 -2 -42 -398 0 -334 2 -379 15 -379 9 0 17 6 20 12 2 7 11 36 19 63
15 48 15 43 1 -37 -7 -37 -7 -38 24 -38 17 0 31 5 31 11 0 5 4 8 9 5 4 -3 6
11 4 32 -4 36 -3 37 12 14 9 -12 13 -27 9 -34 -4 -6 -3 -8 3 -5 6 4 16 0 23
-8 17 -20 302 -22 295 -2 -6 17 45 76 52 60 2 -7 14 -13 25 -13 16 0 19 -5 16
-25 -6 -31 8 -43 17 -15 3 11 15 24 25 30 15 8 17 7 12 -12 -3 -13 -1 -19 5
-15 6 4 13 0 17 -8 3 -8 15 -15 27 -15 19 0 21 4 14 38 -6 35 -6 36 9 17 8
-11 16 -28 16 -37 0 -21 45 -25 54 -5 5 10 7 10 12 0 3 -7 11 -13 17 -13 16 0
48 78 36 86 -5 3 -6 11 -2 17 4 6 6 26 4 44 -1 21 4 38 17 51 11 11 32 57 48
103 l29 84 5 -40 c6 -40 6 -40 12 -10 17 74 17 136 4 220 -15 86 -15 129 -1
65 4 -17 9 -29 12 -26 8 8 -28 107 -37 101 -5 -3 -12 5 -16 17 -3 13 -19 42
-35 66 -35 52 -37 61 -6 36 l22 -19 -19 23 c-11 12 -21 20 -24 17 -2 -2 -19 7
-37 20 -17 14 -39 25 -48 25 -10 0 -17 7 -17 15 0 10 -10 15 -34 15 -29 0 -41
-8 -74 -47 -21 -27 -46 -61 -55 -78 -9 -16 -16 -27 -17 -23 0 13 33 93 45 108
7 8 16 25 19 37 6 18 1 25 -33 43 -48 24 -48 24 -86 4z m162 -84 c-3 -11 -1
-22 3 -25 5 -3 5 -17 1 -32 -4 -15 -3 -46 2 -69 6 -27 6 -51 -1 -70 -9 -26
-11 -21 -13 41 -1 44 -4 56 -6 33 -2 -21 -8 -38 -13 -38 -5 0 -7 15 -3 33 3
17 2 29 -2 25 -4 -4 -11 -33 -15 -65 l-7 -58 -2 50 c-1 49 14 112 40 168 14
32 24 36 16 7z m-94 -10 c-3 -11 -10 -23 -16 -27 -5 -3 -8 -2 -5 3 3 5 8 17
11 27 9 24 16 22 10 -3z m-133 -15 c-7 -9 -15 -13 -18 -10 -3 2 1 11 8 20 7 9
15 13 18 10 3 -2 -1 -11 -8 -20z m430 -106 c11 -21 20 -44 20 -51 0 -7 -11 8
-24 34 -36 71 -67 112 -76 98 -8 -13 -20 9 -20 36 0 20 75 -68 100 -117z
m-530 83 c0 -5 -7 -17 -16 -28 -8 -10 -14 -14 -11 -9 2 6 7 18 10 28 7 17 17
23 17 9z m170 -127 c0 -16 -6 -25 -15 -25 -18 0 -19 4 -3 30 16 26 18 25 18
-5z m300 -82 c0 -7 -12 -13 -26 -13 -19 0 -24 4 -20 18 2 9 8 37 12 62 l7 45
13 -50 c8 -27 14 -56 14 -62z m-166 27 c3 -37 2 -47 -4 -30 -8 26 -13 96 -6
89 3 -3 7 -29 10 -59z m-136 -37 c-3 -46 -5 -48 -33 -49 -16 -1 -38 -5 -47 -9
-10 -4 -23 -5 -30 -3 -6 2 -20 -4 -31 -15 -10 -10 -22 -16 -25 -12 -4 4 9 19
28 34 19 14 51 43 72 64 52 52 70 50 66 -10z m87 -63 c7 -83 10 -94 46 -146
60 -85 92 -153 80 -168 -6 -7 -33 -28 -61 -47 -47 -32 -49 -35 -44 -70 5 -28
2 -38 -10 -42 -22 -9 -61 7 -79 33 -15 21 -15 21 -21 -5 -8 -33 -45 -47 -99
-39 -51 8 -83 23 -50 24 25 0 39 15 22 25 -7 5 -1 17 17 36 21 22 31 26 45 19
28 -16 36 -12 11 6 -18 12 -20 19 -11 35 14 26 10 29 -40 36 -30 4 -47 13 -61
33 -32 45 -24 51 35 25 30 -14 55 -22 55 -19 0 3 -9 19 -20 34 -22 31 -48 88
-61 135 -8 28 -8 29 7 10 8 -11 20 -19 25 -18 5 2 9 -4 9 -12 0 -16 2 -17 40
-17 62 -1 65 0 68 43 2 26 -1 38 -8 34 -5 -3 -10 -1 -10 4 0 6 2 11 4 11 2 0
11 3 20 6 11 4 19 -3 26 -22 13 -34 30 -17 22 23 -3 18 -1 24 7 19 8 -5 11 9
11 48 0 89 17 65 25 -34z m-55 29 c0 -5 -4 -9 -10 -9 -5 0 -10 7 -10 16 0 8 5
12 10 9 6 -3 10 -10 10 -16z m258 5 c15 -26 -8 -70 -45 -88 -38 -18 -38 -19
-16 51 17 55 42 70 61 37z m4 -96 c-7 -7 -12 -8 -12 -2 0 14 12 26 19 19 2 -3
-1 -11 -7 -17z m-344 0 c7 -7 12 -22 12 -35 0 -18 -6 -23 -24 -23 -35 0 -49
22 -30 48 17 25 25 27 42 10z m272 -84 c0 -8 -4 -14 -10 -14 -5 0 -10 9 -10
21 0 11 5 17 10 14 6 -3 10 -13 10 -21z m29 -15 c-8 -16 -9 -24 -1 -27 12 -4
5 -32 -8 -32 -17 0 -18 45 -2 72 19 33 29 21 11 -13z m-602 -181 c-3 -8 -6 -5
-6 6 -1 11 2 17 5 13 3 -3 4 -12 1 -19z m633 -149 c0 -5 4 -8 9 -5 5 4 7 -3 4
-14 -5 -20 -7 -20 -24 -4 -10 9 -16 21 -13 25 7 12 24 11 24 -2z m-372 -27 c6
-18 -15 -14 -22 4 -4 10 -1 14 6 12 6 -2 14 -10 16 -16z"/>
<path d="M510 247 c0 -36 28 -71 46 -59 6 4 16 16 23 27 11 18 12 18 6 -7 -7
-36 -1 -35 25 2 18 25 19 34 10 45 -15 18 -61 20 -78 3 -9 -9 -12 -8 -12 5 0
9 -4 17 -10 17 -5 0 -10 -15 -10 -33z"/>
<path d="M710 946 c0 -3 9 -10 20 -16 11 -6 20 -8 20 -6 0 3 -9 10 -20 16 -11
6 -20 8 -20 6z"/>
<path d="M71 849 c-39 -34 -71 -67 -71 -73 0 -6 7 -3 14 7 15 19 31 23 20 5
-5 -9 -3 -9 9 1 9 7 15 17 12 21 -3 5 18 29 47 54 29 25 50 46 46 46 -4 0 -38
-28 -77 -61z"/>
<path d="M795 880 c10 -11 20 -20 23 -20 3 0 -3 9 -13 20 -10 11 -20 20 -23
20 -3 0 3 -9 13 -20z"/>
<path d="M284 872 c-11 -10 -29 -31 -39 -47 -10 -17 -14 -25 -9 -20 77 83 93
104 48 67z"/>
</g>
</svg>
